# xmcd
#
# Track frame offsets: 
#        150
#        9878
#        22863
#        31824
#        43623
#        58094
#        70598
#        81169
#        90422
#        103623
#        113819
#        126820
#
# Disc length: 1881 seconds
#
# Revision: 0
# Processed by: cddbd v1.5.1PL0 Copyright (c) Steve Scherf et al.
# Submitted via: ExactAudioCopy v0.95a2
#
DISCID=8407570c
DTITLE=Happy baby - Весёлая планета
DYEAR=1999
DGENRE=Kinderlieder
TTITLE0=Покидая дом родной
TTITLE1=Приход весны
TTITLE2=The Prancing Pixie
TTITLE3=Волшебный май
TTITLE4=Весёлый охотник
TTITLE5=Домик у ручья
TTITLE6=Крошка Джонни
TTITLE7=Кукушечка
TTITLE8=Мельница
TTITLE9=Утренняя роса
TTITLE10=Странный мельник
TTITLE11=Святой Августин
EXTD=
EXTT0=
EXTT1=
EXTT2=
EXTT3=
EXTT4=
EXTT5=
EXTT6=
EXTT7=
EXTT8=
EXTT9=
EXTT10=
EXTT11=
PLAYORDER=
